<svg xmlns="http://www.w3.org/2000/svg" xmlns:xlink="http://www.w3.org/1999/xlink" width="500" zoomAndPan="magnify" viewBox="0 0 375 374.999991" height="500" preserveAspectRatio="xMidYMid meet" version="1.2"><defs><clipPath id="309085a932"><path d="M 91.839844 97.253906 L 283.160156 97.253906 L 283.160156 288.574219 L 91.839844 288.574219 Z M 91.839844 97.253906 "/></clipPath><clipPath id="8e03bd37f3"><path d="M 187.5 97.253906 C 134.667969 97.253906 91.839844 140.082031 91.839844 192.914062 C 91.839844 245.746094 134.667969 288.574219 187.5 288.574219 C 240.332031 288.574219 283.160156 245.746094 283.160156 192.914062 C 283.160156 140.082031 240.332031 97.253906 187.5 97.253906 Z M 187.5 97.253906 "/></clipPath><clipPath id="b03ee65cf0"><path d="M 128.230469 56.46875 L 246.714844 56.46875 L 246.714844 137.992188 L 128.230469 137.992188 Z M 128.230469 56.46875 "/></clipPath><clipPath id="4b31f7a182"><path d="M 118 243 L 256 243 L 256 293 L 118 293 Z M 118 243 "/></clipPath><clipPath id="74de4d4436"><path d="M 249.554688 317.027344 L 112.21875 292.539062 L 123.410156 229.78125 L 260.742188 254.265625 Z M 249.554688 317.027344 "/></clipPath><clipPath id="0da29abfeb"><path d="M 249.554688 317.027344 L 112.21875 292.539062 L 123.410156 229.78125 L 260.742188 254.265625 Z M 249.554688 317.027344 "/></clipPath><clipPath id="928b27b2d4"><path d="M 155 254 L 225 254 L 225 303 L 155 303 Z M 155 254 "/></clipPath><clipPath id="8386a70d94"><path d="M 249.554688 317.027344 L 112.21875 292.539062 L 123.410156 229.78125 L 260.742188 254.265625 Z M 249.554688 317.027344 "/></clipPath><clipPath id="1a5fdb2436"><path d="M 249.554688 317.027344 L 112.21875 292.539062 L 123.410156 229.78125 L 260.742188 254.265625 Z M 249.554688 317.027344 "/></clipPath></defs><g id="e8f4546537"><g clip-rule="nonzero" clip-path="url(#309085a932)"><g clip-rule="nonzero" clip-path="url(#8e03bd37f3)"><path style=" stroke:none;fill-rule:nonzero;fill:#ffdb4d;fill-opacity:1;" d="M 91.839844 97.253906 L 283.160156 97.253906 L 283.160156 288.574219 L 91.839844 288.574219 Z M 91.839844 97.253906 "/></g></g><g style="fill:#622906;fill-opacity:1;"><g transform="translate(98.366783, 198.831635)"><path style="stroke:none" d="M 17.015625 -5.34375 L 1.078125 -0.34375 C 1.523438 -1.070312 1.707031 -2.132812 1.625 -3.53125 C 1.539062 -4.9375 1.289062 -6.300781 0.875 -7.625 L -11.28125 -46.328125 C -11.707031 -47.703125 -12.28125 -48.972656 -13 -50.140625 C -13.726562 -51.316406 -14.484375 -52.082031 -15.265625 -52.4375 L -1.234375 -56.84375 L 19.390625 -33.109375 L 22.6875 -64.34375 L 36.71875 -68.75 C 36.269531 -68.007812 36.082031 -66.953125 36.15625 -65.578125 C 36.238281 -64.203125 36.492188 -62.828125 36.921875 -61.453125 L 49.078125 -22.75 C 49.492188 -21.425781 50.066406 -20.164062 50.796875 -18.96875 C 51.523438 -17.769531 52.28125 -17 53.0625 -16.65625 L 37.140625 -11.65625 C 37.585938 -12.382812 37.765625 -13.457031 37.671875 -14.875 C 37.578125 -16.289062 37.320312 -17.664062 36.90625 -19 L 29.59375 -42.3125 L 26.640625 -10 L 5.625 -34.984375 L 12.984375 -11.5 C 13.398438 -10.164062 13.976562 -8.890625 14.71875 -7.671875 C 15.457031 -6.460938 16.222656 -5.6875 17.015625 -5.34375 Z M 17.015625 -5.34375 "/></g></g><g style="fill:#622906;fill-opacity:1;"><g transform="translate(148.93735, 183.448858)"><path style="stroke:none" d="M 0.40625 -25.890625 C 0.375 -26.296875 0.28125 -26.925781 0.125 -27.78125 C -0.03125 -28.644531 -0.316406 -29.53125 -0.734375 -30.4375 C -1.148438 -31.34375 -1.765625 -32.097656 -2.578125 -32.703125 C -3.398438 -33.304688 -4.484375 -33.550781 -5.828125 -33.4375 L -5.84375 -33.71875 C -4.46875 -33.925781 -3 -34.316406 -1.4375 -34.890625 C 0.113281 -35.460938 1.640625 -36.144531 3.140625 -36.9375 C 4.640625 -37.738281 6.046875 -38.550781 7.359375 -39.375 C 8.671875 -40.195312 9.765625 -40.929688 10.640625 -41.578125 L 12.9375 -15.875 C 13.101562 -14.070312 13.703125 -12.722656 14.734375 -11.828125 C 15.765625 -10.941406 16.972656 -10.5625 18.359375 -10.6875 C 20.117188 -10.84375 21.414062 -11.523438 22.25 -12.734375 C 23.09375 -13.941406 23.664062 -15.195312 23.96875 -16.5 L 22.953125 -27.890625 C 22.921875 -28.296875 22.828125 -28.929688 22.671875 -29.796875 C 22.523438 -30.660156 22.238281 -31.546875 21.8125 -32.453125 C 21.394531 -33.359375 20.773438 -34.113281 19.953125 -34.71875 C 19.140625 -35.332031 18.054688 -35.578125 16.703125 -35.453125 L 16.6875 -35.734375 C 18.0625 -35.941406 19.523438 -36.332031 21.078125 -36.90625 C 22.640625 -37.476562 24.171875 -38.160156 25.671875 -38.953125 C 27.179688 -39.753906 28.585938 -40.566406 29.890625 -41.390625 C 31.203125 -42.210938 32.304688 -42.945312 33.203125 -43.59375 L 34.296875 -31.484375 C 34.523438 -28.921875 34.75 -26.398438 34.96875 -23.921875 C 35.1875 -21.441406 35.441406 -18.609375 35.734375 -15.421875 C 35.828125 -14.359375 36.007812 -13.304688 36.28125 -12.265625 C 36.5625 -11.234375 37.039062 -10.394531 37.71875 -9.75 C 38.40625 -9.113281 39.425781 -8.859375 40.78125 -8.984375 L 40.796875 -8.703125 C 39.765625 -8.046875 38.675781 -7.320312 37.53125 -6.53125 C 36.394531 -5.75 35.296875 -5.007812 34.234375 -4.3125 C 33.179688 -3.613281 32.25 -3.03125 31.4375 -2.5625 C 30.625 -2.09375 30.050781 -1.84375 29.71875 -1.8125 C 28.78125 -1.726562 27.941406 -2.050781 27.203125 -2.78125 C 26.472656 -3.507812 25.890625 -4.445312 25.453125 -5.59375 C 25.015625 -6.75 24.742188 -7.890625 24.640625 -9.015625 L 24.171875 -14.375 L 19.4375 -2.375 C 18.757812 -1.882812 18.003906 -1.460938 17.171875 -1.109375 C 16.335938 -0.753906 15.390625 -0.53125 14.328125 -0.4375 C 10.765625 -0.113281 7.851562 -0.90625 5.59375 -2.8125 C 3.34375 -4.71875 2.03125 -7.789062 1.65625 -12.03125 Z M 0.40625 -25.890625 "/></g></g><g style="fill:#622906;fill-opacity:1;"><g transform="translate(185.257712, 178.905858)"><path style="stroke:none" d="M 17.6875 2.234375 L 1.109375 0.140625 C 1.828125 -0.335938 2.4375 -1.226562 2.9375 -2.53125 C 3.4375 -3.84375 3.773438 -5.1875 3.953125 -6.5625 L 9.046875 -46.8125 C 9.222656 -48.238281 9.226562 -49.632812 9.0625 -51 C 8.894531 -52.375 8.523438 -53.378906 7.953125 -54.015625 L 22.5625 -52.171875 L 31.421875 -22.03125 L 47.421875 -49.03125 L 62.015625 -47.1875 C 61.304688 -46.71875 60.703125 -45.835938 60.203125 -44.546875 C 59.703125 -43.265625 59.363281 -41.910156 59.1875 -40.484375 L 54.09375 -0.234375 C 53.914062 1.140625 53.910156 2.519531 54.078125 3.90625 C 54.242188 5.300781 54.609375 6.320312 55.171875 6.96875 L 38.609375 4.875 C 39.328125 4.394531 39.9375 3.492188 40.4375 2.171875 C 40.945312 0.847656 41.289062 -0.503906 41.46875 -1.890625 L 44.53125 -26.140625 L 28.390625 2 L 19.6875 -29.453125 L 16.609375 -5.03125 C 16.429688 -3.644531 16.421875 -2.25 16.578125 -0.84375 C 16.742188 0.5625 17.113281 1.585938 17.6875 2.234375 Z M 17.6875 2.234375 "/></g></g><g style="fill:#622906;fill-opacity:1;"><g transform="translate(237.638454, 185.99504)"><path style="stroke:none" d="M 11.15625 -23.359375 C 11.289062 -23.742188 11.46875 -24.359375 11.6875 -25.203125 C 11.90625 -26.046875 12.015625 -26.96875 12.015625 -27.96875 C 12.015625 -28.976562 11.769531 -29.925781 11.28125 -30.8125 C 10.789062 -31.707031 9.90625 -32.378906 8.625 -32.828125 L 8.71875 -33.09375 C 10.070312 -32.707031 11.578125 -32.445312 13.234375 -32.3125 C 14.890625 -32.1875 16.5625 -32.175781 18.25 -32.28125 C 19.945312 -32.382812 21.5625 -32.53125 23.09375 -32.71875 C 24.632812 -32.914062 25.9375 -33.125 27 -33.34375 L 18.375 -9.03125 C 17.769531 -7.320312 17.75 -5.847656 18.3125 -4.609375 C 18.875 -3.378906 19.8125 -2.53125 21.125 -2.0625 C 22.800781 -1.46875 24.269531 -1.546875 25.53125 -2.296875 C 26.800781 -3.046875 27.847656 -3.953125 28.671875 -5.015625 L 32.484375 -15.796875 C 32.617188 -16.179688 32.796875 -16.796875 33.015625 -17.640625 C 33.242188 -18.484375 33.351562 -19.40625 33.34375 -20.40625 C 33.34375 -21.414062 33.097656 -22.363281 32.609375 -23.25 C 32.128906 -24.144531 31.242188 -24.820312 29.953125 -25.28125 L 30.046875 -25.546875 C 31.398438 -25.148438 32.90625 -24.882812 34.5625 -24.75 C 36.21875 -24.625 37.894531 -24.613281 39.59375 -24.71875 C 41.289062 -24.820312 42.898438 -24.96875 44.421875 -25.15625 C 45.953125 -25.351562 47.257812 -25.5625 48.34375 -25.78125 L 44.28125 -14.328125 C 43.414062 -11.898438 42.566406 -9.515625 41.734375 -7.171875 C 40.910156 -4.828125 39.960938 -2.144531 38.890625 0.875 C 38.535156 1.875 38.269531 2.898438 38.09375 3.953125 C 37.914062 5.015625 38.003906 5.976562 38.359375 6.84375 C 38.710938 7.71875 39.535156 8.378906 40.828125 8.828125 L 40.734375 9.078125 C 39.515625 9.242188 38.21875 9.445312 36.84375 9.6875 C 35.476562 9.925781 34.164062 10.140625 32.90625 10.328125 C 31.65625 10.523438 30.566406 10.671875 29.640625 10.765625 C 28.710938 10.859375 28.09375 10.847656 27.78125 10.734375 C 26.882812 10.421875 26.253906 9.78125 25.890625 8.8125 C 25.535156 7.84375 25.394531 6.742188 25.46875 5.515625 C 25.550781 4.285156 25.78125 3.132812 26.15625 2.0625 L 27.953125 -3 L 18.65625 5.953125 C 17.84375 6.097656 16.984375 6.160156 16.078125 6.140625 C 15.171875 6.117188 14.210938 5.929688 13.203125 5.578125 C 9.828125 4.378906 7.507812 2.445312 6.25 -0.21875 C 5 -2.882812 5.085938 -6.226562 6.515625 -10.25 Z M 11.15625 -23.359375 "/></g></g><g clip-rule="nonzero" clip-path="url(#b03ee65cf0)"><path style=" stroke:none;fill-rule:nonzero;fill:#622906;fill-opacity:1;" d="M 238.582031 105.304688 C 235.371094 108.667969 231.039062 110.519531 226.390625 110.519531 C 222.726562 110.519531 218.222656 108.765625 217.613281 108.519531 C 202.925781 100.398438 187.128906 100.234375 176.449219 101.527344 C 168.457031 102.496094 162.164062 104.363281 158.933594 105.46875 L 158.929688 105.085938 L 156.414062 106.414062 C 153.835938 107.773438 150.925781 108.445312 147.992188 108.347656 C 139.246094 108.066406 132.089844 101 131.707031 92.257812 C 131.5 87.605469 133.15625 83.191406 136.367188 79.835938 C 139.578125 76.476562 143.90625 74.628906 148.554688 74.628906 C 151.324219 74.628906 153.96875 75.28125 156.414062 76.574219 L 157.894531 77.355469 L 158.722656 75.898438 C 164.332031 66.046875 174.851562 59.925781 186.171875 59.925781 C 198.589844 59.925781 209.898438 67.25 214.984375 78.578125 L 215.796875 80.386719 L 217.480469 79.339844 C 220.453125 77.484375 223.890625 76.613281 227.414062 76.820312 C 235.898438 77.324219 242.847656 84.371094 243.234375 92.867188 C 243.449219 97.523438 241.796875 101.941406 238.582031 105.304688 Z M 202.886719 131.742188 C 198.132812 130.480469 191.84375 129.785156 185.179688 129.785156 C 178.511719 129.785156 172.222656 130.480469 167.472656 131.742188 C 165.019531 132.390625 163.097656 133.160156 161.710938 134.042969 C 159.546875 122.414062 159.078125 112.464844 158.976562 109.125 C 161.5 108.210938 168.179688 106.015625 176.867188 104.960938 C 186.804688 103.757812 201.378906 103.871094 214.988281 111.035156 C 214.5625 113.597656 213.15625 120.710938 208.957031 134.246094 C 207.550781 133.277344 205.523438 132.441406 202.886719 131.742188 Z M 246.691406 92.707031 C 246.464844 87.714844 244.390625 82.988281 240.847656 79.394531 C 237.304688 75.804688 232.605469 73.664062 227.617188 73.367188 C 224.019531 73.152344 220.496094 73.875 217.324219 75.464844 C 211.347656 63.863281 199.320312 56.46875 186.171875 56.46875 C 174.148438 56.46875 162.941406 62.6875 156.546875 72.808594 C 154.03125 71.730469 151.296875 71.167969 148.554688 71.167969 C 142.953125 71.167969 137.738281 73.398438 133.867188 77.445312 C 129.996094 81.488281 128 86.804688 128.25 92.414062 C 128.714844 102.945312 137.339844 111.464844 147.882812 111.804688 C 150.507812 111.890625 153.121094 111.464844 155.566406 110.570312 C 155.765625 115.355469 162.492188 137.992188 162.492188 137.992188 C 162.492188 137.769531 163.511719 136.371094 168.359375 135.085938 C 172.828125 133.898438 178.800781 133.246094 185.179688 133.246094 C 191.554688 133.246094 197.527344 133.898438 202 135.085938 C 206.84375 136.371094 207.863281 137.769531 207.863281 137.992188 L 208.886719 137.992188 C 208.886719 137.992188 217.628906 115.960938 218.261719 112.433594 C 220.28125 113.105469 223.476562 113.980469 226.390625 113.980469 C 231.992188 113.980469 237.210938 111.746094 241.085938 107.695312 C 244.957031 103.644531 246.945312 98.320312 246.691406 92.707031 "/></g><path style=" stroke:none;fill-rule:nonzero;fill:#622906;fill-opacity:1;" d="M 217.714844 96.082031 C 203 87.90625 187.152344 87.734375 176.449219 89.03125 C 164.898438 90.433594 156.890625 93.710938 156.558594 93.851562 C 155.675781 94.214844 155.257812 95.226562 155.621094 96.109375 C 155.988281 96.992188 157 97.410156 157.882812 97.046875 C 157.960938 97.015625 165.859375 93.785156 176.96875 92.453125 C 187.132812 91.234375 202.164062 91.398438 216.035156 99.105469 C 216.300781 99.253906 216.589844 99.324219 216.875 99.324219 C 217.480469 99.324219 218.070312 99 218.386719 98.433594 C 218.851562 97.597656 218.550781 96.542969 217.714844 96.082031 "/><path style=" stroke:none;fill-rule:nonzero;fill:#622906;fill-opacity:1;" d="M 205.082031 122.238281 C 196.96875 119.898438 188.09375 119.140625 178.699219 119.992188 C 177.746094 120.078125 177.046875 120.917969 177.132812 121.871094 C 177.21875 122.820312 178.058594 123.523438 179.007812 123.4375 C 187.976562 122.625 196.425781 123.339844 204.121094 125.5625 C 204.28125 125.605469 204.445312 125.628906 204.601562 125.628906 C 205.351562 125.628906 206.046875 125.136719 206.265625 124.378906 C 206.527344 123.460938 206 122.5 205.082031 122.238281 "/><g clip-rule="nonzero" clip-path="url(#4b31f7a182)"><g clip-rule="nonzero" clip-path="url(#74de4d4436)"><g clip-rule="nonzero" clip-path="url(#0da29abfeb)"><path style=" stroke:none;fill-rule:nonzero;fill:#622906;fill-opacity:1;" d="M 118.878906 262.890625 C 119.382812 262.042969 120.371094 261.519531 121.441406 261.632812 C 121.746094 261.683594 144.6875 264.214844 169.054688 257.449219 C 171.4375 256.78125 173.335938 255.09375 174.503906 252.921875 C 176.261719 249.609375 180.523438 248.03125 185.222656 246.371094 C 194.550781 243.046875 199.164062 243.398438 202.074219 244.582031 C 202.691406 244.847656 185.300781 250.519531 185.796875 251.894531 C 186.261719 253.226562 196.996094 249.445312 202 247.414062 C 203.214844 246.929688 204.558594 247.714844 204.757812 248.996094 C 204.898438 249.957031 204.335938 250.910156 203.386719 251.210938 C 198.863281 252.742188 187.390625 256.3125 187.765625 258.132812 C 188.148438 259.917969 204.414062 253.539062 204.414062 253.539062 C 204.414062 253.539062 205 256.605469 199.738281 258.785156 C 190.898438 262.433594 182.4375 266.582031 178.457031 264.195312 C 176.414062 262.972656 171.941406 261.824219 169.777344 262.800781 C 141.546875 275.703125 116.496094 270.574219 118.578125 263.929688 C 118.636719 263.585938 118.707031 263.210938 118.878906 262.890625 Z M 187.457031 271.453125 C 192.40625 271.476562 196.84375 272.8125 199.945312 274.886719 C 202 276.269531 204.46875 276.863281 206.867188 276.316406 C 231.597656 270.785156 250.621094 257.683594 250.886719 257.496094 C 251.777344 256.875 252.871094 256.875 253.753906 257.382812 C 254.074219 257.558594 254.417969 257.8125 254.589844 258.15625 C 258.621094 266.167969 237.585938 277.425781 209.136719 281.285156 C 206.660156 281.621094 204.703125 283.417969 203.429688 285.527344 C 201.011719 289.464844 194.699219 292.277344 187.34375 292.214844 C 177.921875 292.132812 170.300781 287.421875 170.347656 281.695312 C 170.355469 275.96875 178.035156 271.371094 187.457031 271.453125 Z M 174.820312 283.273438 C 176.554688 281.867188 178.351562 280.746094 180.257812 279.914062 C 182.164062 279.046875 184.160156 278.585938 186.148438 278.355469 C 188.246094 278.183594 190.316406 278.160156 192.378906 278.410156 C 194.429688 278.699219 196.535156 279.152344 198.554688 280.058594 C 197.015625 278.421875 194.894531 277.417969 192.703125 276.792969 C 190.507812 276.207031 188.199219 276.03125 185.9375 276.25 C 183.640625 276.464844 181.359375 277.226562 179.421875 278.480469 C 177.53125 279.664062 175.878906 281.28125 174.820312 283.273438 Z M 174.820312 283.273438 "/></g></g></g><g clip-rule="nonzero" clip-path="url(#928b27b2d4)"><g clip-rule="nonzero" clip-path="url(#8386a70d94)"><g clip-rule="nonzero" clip-path="url(#1a5fdb2436)"><path style=" stroke:none;fill-rule:nonzero;fill:#622906;fill-opacity:1;" d="M 205.867188 265.726562 C 206.171875 264.027344 207.773438 262.910156 209.476562 263.210938 C 211.175781 263.515625 212.292969 265.117188 211.988281 266.820312 C 211.6875 268.519531 210.082031 269.636719 208.382812 269.335938 C 206.683594 269.03125 205.566406 267.429688 205.867188 265.726562 Z M 158.617188 284.949219 C 160.921875 285.359375 163.101562 283.835938 163.515625 281.53125 C 163.925781 279.226562 162.402344 277.042969 160.097656 276.632812 C 157.792969 276.222656 155.609375 277.746094 155.199219 280.050781 C 154.789062 282.355469 156.347656 284.542969 158.617188 284.949219 Z M 216.734375 300.339844 C 218.285156 300.617188 219.714844 299.585938 219.984375 298.074219 C 220.253906 296.5625 219.230469 295.09375 217.71875 294.824219 C 216.171875 294.546875 214.738281 295.578125 214.46875 297.089844 C 214.199219 298.601562 215.222656 300.070312 216.734375 300.339844 Z M 168.402344 302.445312 C 169.535156 302.644531 170.648438 301.871094 170.851562 300.738281 C 171.054688 299.601562 170.277344 298.488281 169.144531 298.289062 C 168.007812 298.085938 166.894531 298.863281 166.695312 299.996094 C 166.492188 301.128906 167.269531 302.242188 168.402344 302.445312 Z M 223.050781 257.054688 C 223.804688 257.191406 224.554688 256.699219 224.695312 255.90625 C 224.832031 255.152344 224.34375 254.402344 223.546875 254.257812 C 222.792969 254.125 222.042969 254.613281 221.902344 255.40625 C 221.757812 256.203125 222.257812 256.914062 223.050781 257.054688 Z M 223.050781 257.054688 "/></g></g></g><g style="fill:#622906;fill-opacity:1;"><g transform="translate(82.386286, 269.764456)"><path style="stroke:none" d="M -9.1875 -37.875 C -9.101562 -37.875 -9.03125 -37.894531 -8.96875 -37.9375 C -8.90625 -37.976562 -8.835938 -38.019531 -8.765625 -38.0625 C -8.835938 -38.882812 -8.863281 -39.722656 -8.84375 -40.578125 C -8.820312 -41.429688 -8.765625 -42.285156 -8.671875 -43.140625 C -8.554688 -43.984375 -8.375 -44.796875 -8.125 -45.578125 C -7.882812 -46.359375 -7.546875 -47.101562 -7.109375 -47.8125 C -6.222656 -49.320312 -5.050781 -50.394531 -3.59375 -51.03125 C -2.144531 -51.675781 -0.644531 -51.875 0.90625 -51.625 C 2.457031 -51.382812 3.859375 -50.660156 5.109375 -49.453125 C 9.054688 -45.578125 10.832031 -40.835938 10.4375 -35.234375 C 10.082031 -30.441406 8.3125 -26.257812 5.125 -22.6875 C 4.988281 -22.5 4.828125 -22.316406 4.640625 -22.140625 C 4.460938 -21.972656 4.332031 -21.78125 4.25 -21.5625 C 4.28125 -21.382812 4.347656 -21.265625 4.453125 -21.203125 C 4.566406 -21.140625 4.6875 -21.082031 4.8125 -21.03125 C 6.394531 -20.519531 7.945312 -19.910156 9.46875 -19.203125 C 10.988281 -18.503906 12.507812 -17.773438 14.03125 -17.015625 C 15.414062 -16.328125 16.890625 -15.734375 18.453125 -15.234375 C 18.628906 -15.171875 18.796875 -15.125 18.953125 -15.09375 C 19.109375 -15.070312 19.265625 -15.046875 19.421875 -15.015625 C 20.492188 -14.773438 21.273438 -14.832031 21.765625 -15.1875 C 22.253906 -15.539062 22.5625 -16.265625 22.6875 -17.359375 C 22.8125 -18.253906 22.816406 -19.164062 22.703125 -20.09375 C 22.585938 -21.03125 22.441406 -21.960938 22.265625 -22.890625 C 22.054688 -24.078125 21.769531 -25.242188 21.40625 -26.390625 C 21.050781 -27.535156 20.65625 -28.660156 20.21875 -29.765625 C 19.988281 -30.429688 19.941406 -30.898438 20.078125 -31.171875 C 20.222656 -31.441406 20.597656 -31.703125 21.203125 -31.953125 C 21.617188 -32.128906 21.914062 -32.03125 22.09375 -31.65625 C 22.25 -31.269531 22.410156 -30.878906 22.578125 -30.484375 C 22.753906 -30.097656 22.914062 -29.703125 23.0625 -29.296875 C 23.5625 -27.941406 24 -26.585938 24.375 -25.234375 C 24.75 -23.878906 25.019531 -22.503906 25.1875 -21.109375 C 25.21875 -20.804688 25.238281 -20.507812 25.25 -20.21875 C 25.257812 -19.9375 25.273438 -19.644531 25.296875 -19.34375 C 25.253906 -17.582031 24.785156 -16.054688 23.890625 -14.765625 C 22.992188 -13.472656 21.800781 -12.523438 20.3125 -11.921875 C 18.820312 -11.328125 17.222656 -11.25 15.515625 -11.6875 C 14.140625 -11.976562 12.828125 -12.40625 11.578125 -12.96875 C 10.328125 -13.539062 9.0625 -14.125 7.78125 -14.71875 C 7.59375 -14.8125 7.394531 -14.90625 7.1875 -15 C 6.988281 -15.09375 6.765625 -15.191406 6.515625 -15.296875 C 7.085938 -14.453125 7.625 -13.640625 8.125 -12.859375 C 8.632812 -12.085938 9.15625 -11.335938 9.6875 -10.609375 C 10.050781 -10.078125 10.429688 -9.554688 10.828125 -9.046875 C 11.222656 -8.535156 11.601562 -8.015625 11.96875 -7.484375 C 12.300781 -6.984375 12.453125 -6.617188 12.421875 -6.390625 C 12.390625 -6.171875 12.144531 -5.859375 11.6875 -5.453125 C 11.320312 -5.171875 10.960938 -4.882812 10.609375 -4.59375 C 10.253906 -4.3125 9.90625 -4.03125 9.5625 -3.75 C 8.976562 -3.207031 8.382812 -3.238281 7.78125 -3.84375 C 7.457031 -4.257812 7.132812 -4.65625 6.8125 -5.03125 C 6.488281 -5.40625 6.160156 -5.796875 5.828125 -6.203125 C 4.628906 -7.722656 3.4375 -9.234375 2.25 -10.734375 C 1.070312 -12.234375 -0.0976562 -13.75 -1.265625 -15.28125 C -1.398438 -15.414062 -1.519531 -15.554688 -1.625 -15.703125 C -1.726562 -15.859375 -1.851562 -16.003906 -2 -16.140625 C -2.425781 -16.765625 -2.960938 -16.925781 -3.609375 -16.625 C -4.023438 -16.4375 -4.445312 -16.273438 -4.875 -16.140625 C -5.3125 -16.003906 -5.742188 -15.878906 -6.171875 -15.765625 C -6.628906 -15.640625 -7.003906 -15.691406 -7.296875 -15.921875 C -7.597656 -16.160156 -7.757812 -16.5 -7.78125 -16.9375 C -7.789062 -17.15625 -7.75 -17.304688 -7.65625 -17.390625 C -7.5625 -17.484375 -7.421875 -17.566406 -7.234375 -17.640625 C -6.984375 -17.722656 -6.71875 -17.8125 -6.4375 -17.90625 C -6.15625 -18.007812 -5.882812 -18.128906 -5.625 -18.265625 C -4.832031 -18.523438 -4.40625 -18.742188 -4.34375 -18.921875 C -4.289062 -19.097656 -4.488281 -19.515625 -4.9375 -20.171875 C -5.675781 -21.210938 -6.414062 -22.257812 -7.15625 -23.3125 C -7.894531 -24.363281 -8.601562 -25.429688 -9.28125 -26.515625 C -10.613281 -28.472656 -11.945312 -30.4375 -13.28125 -32.40625 C -14.613281 -34.375 -15.851562 -36.40625 -17 -38.5 C -17.300781 -39.070312 -17.597656 -39.65625 -17.890625 -40.25 C -18.179688 -40.851562 -18.488281 -41.457031 -18.8125 -42.0625 C -19.195312 -42.757812 -19.101562 -43.367188 -18.53125 -43.890625 C -18.164062 -44.234375 -17.816406 -44.570312 -17.484375 -44.90625 C -17.148438 -45.25 -16.816406 -45.582031 -16.484375 -45.90625 C -16.128906 -46.238281 -15.851562 -46.398438 -15.65625 -46.390625 C -15.46875 -46.378906 -15.21875 -46.207031 -14.90625 -45.875 C -14.09375 -44.875 -13.273438 -43.8125 -12.453125 -42.6875 C -11.878906 -41.882812 -11.320312 -41.070312 -10.78125 -40.25 C -10.238281 -39.4375 -9.707031 -38.644531 -9.1875 -37.875 Z M 5.1875 -26.421875 C 6.539062 -29.335938 7.019531 -32.160156 6.625 -34.890625 C 6.226562 -37.628906 5.335938 -40.285156 3.953125 -42.859375 C 3.253906 -43.765625 2.550781 -44.585938 1.84375 -45.328125 C 1.132812 -46.078125 0.335938 -46.703125 -0.546875 -47.203125 C -0.785156 -47.359375 -1.039062 -47.5 -1.3125 -47.625 C -1.59375 -47.757812 -1.875 -47.867188 -2.15625 -47.953125 C -2.9375 -48.097656 -3.515625 -48.078125 -3.890625 -47.890625 C -4.265625 -47.710938 -4.582031 -47.238281 -4.84375 -46.46875 C -5.269531 -45.351562 -5.519531 -44.210938 -5.59375 -43.046875 C -5.675781 -41.878906 -5.707031 -40.710938 -5.6875 -39.546875 C -5.570312 -36.347656 -4.863281 -33.390625 -3.5625 -30.671875 C -2.269531 -27.953125 -0.695312 -25.328125 1.15625 -22.796875 C 1.5625 -22.285156 1.988281 -22.253906 2.4375 -22.703125 C 2.988281 -23.253906 3.503906 -23.828125 3.984375 -24.421875 C 4.460938 -25.023438 4.863281 -25.691406 5.1875 -26.421875 Z M 5.1875 -26.421875 "/></g></g><g style="fill:#622906;fill-opacity:1;"><g transform="translate(107.296882, 253.133938)"><path style="stroke:none" d="M 14.140625 -25.15625 C 14.578125 -25.125 14.789062 -24.984375 14.78125 -24.734375 C 14.78125 -24.484375 14.765625 -24.21875 14.734375 -23.9375 C 14.398438 -21.601562 14.03125 -19.265625 13.625 -16.921875 C 13.226562 -14.585938 12.828125 -12.253906 12.421875 -9.921875 C 12.148438 -8.566406 11.601562 -7.441406 10.78125 -6.546875 C 9.957031 -5.648438 8.992188 -4.972656 7.890625 -4.515625 C 6.785156 -4.066406 5.65625 -3.820312 4.5 -3.78125 C 3.351562 -3.75 2.300781 -3.945312 1.34375 -4.375 C -0.132812 -5.070312 -1.460938 -5.941406 -2.640625 -6.984375 C -3.816406 -8.035156 -4.875 -9.234375 -5.8125 -10.578125 C -6.164062 -11.035156 -6.492188 -11.515625 -6.796875 -12.015625 C -7.109375 -12.515625 -7.378906 -13.046875 -7.609375 -13.609375 C -8.367188 -15.253906 -8.945312 -16.953125 -9.34375 -18.703125 C -9.75 -20.453125 -9.929688 -22.265625 -9.890625 -24.140625 C -9.847656 -25.191406 -9.691406 -26.234375 -9.421875 -27.265625 C -9.148438 -28.304688 -8.707031 -29.273438 -8.09375 -30.171875 C -7.40625 -31.171875 -6.597656 -31.929688 -5.671875 -32.453125 C -4.753906 -32.984375 -3.664062 -33.15625 -2.40625 -32.96875 C -1.144531 -32.789062 -0.125 -32.320312 0.65625 -31.5625 C 1.4375 -30.8125 2.019531 -29.832031 2.40625 -28.625 C 3.0625 -26.488281 3.164062 -24.472656 2.71875 -22.578125 C 2.28125 -20.679688 1.21875 -18.972656 -0.46875 -17.453125 C -1.03125 -16.960938 -1.148438 -16.414062 -0.828125 -15.8125 C -0.0859375 -14.382812 0.765625 -13.035156 1.734375 -11.765625 C 2.710938 -10.492188 3.753906 -9.285156 4.859375 -8.140625 C 5.359375 -7.628906 5.941406 -7.238281 6.609375 -6.96875 C 7.535156 -6.625 8.25 -6.894531 8.75 -7.78125 C 8.945312 -8.070312 9.085938 -8.375 9.171875 -8.6875 C 9.265625 -9.007812 9.359375 -9.34375 9.453125 -9.6875 C 9.992188 -11.664062 10.46875 -13.664062 10.875 -15.6875 C 11.28125 -17.707031 11.664062 -19.722656 12.03125 -21.734375 C 12.082031 -22.148438 12.140625 -22.570312 12.203125 -23 C 12.273438 -23.425781 12.351562 -23.847656 12.4375 -24.265625 C 12.550781 -24.703125 12.726562 -24.976562 12.96875 -25.09375 C 13.207031 -25.207031 13.597656 -25.226562 14.140625 -25.15625 Z M -3.8125 -24.109375 C -3.632812 -23.203125 -3.421875 -22.296875 -3.171875 -21.390625 C -2.921875 -20.484375 -2.582031 -19.585938 -2.15625 -18.703125 C -1.96875 -18.742188 -1.820312 -18.8125 -1.71875 -18.90625 C -1.613281 -19.007812 -1.523438 -19.117188 -1.453125 -19.234375 C -0.867188 -20.109375 -0.523438 -21.175781 -0.421875 -22.4375 C -0.328125 -23.695312 -0.453125 -24.9375 -0.796875 -26.15625 C -1.140625 -27.375 -1.660156 -28.351562 -2.359375 -29.09375 C -2.410156 -29.113281 -2.445312 -29.148438 -2.46875 -29.203125 C -2.488281 -29.253906 -2.523438 -29.289062 -2.578125 -29.3125 C -2.785156 -29.46875 -2.992188 -29.609375 -3.203125 -29.734375 C -3.410156 -29.859375 -3.632812 -29.859375 -3.875 -29.734375 C -4.113281 -29.660156 -4.265625 -29.507812 -4.328125 -29.28125 C -4.390625 -29.050781 -4.414062 -28.804688 -4.40625 -28.546875 C -4.332031 -27.785156 -4.253906 -27.035156 -4.171875 -26.296875 C -4.085938 -25.566406 -3.96875 -24.835938 -3.8125 -24.109375 Z M -3.8125 -24.109375 "/></g></g><g style="fill:#622906;fill-opacity:1;"><g transform="translate(124.469539, 244.632575)"><path style="stroke:none" d="M -2.84375 -25.1875 C -2.957031 -25.257812 -3.070312 -25.347656 -3.1875 -25.453125 C -3.300781 -25.566406 -3.460938 -25.6875 -3.671875 -25.8125 C -3.566406 -24.726562 -3.429688 -23.691406 -3.265625 -22.703125 C -3.109375 -21.722656 -2.960938 -20.753906 -2.828125 -19.796875 C -2.296875 -16.347656 -1.96875 -12.894531 -1.84375 -9.4375 C -1.71875 -5.988281 -1.753906 -2.539062 -1.953125 0.90625 C -1.972656 1.675781 -2.082031 2.164062 -2.28125 2.375 C -2.488281 2.59375 -2.914062 2.753906 -3.5625 2.859375 C -4.195312 2.960938 -4.523438 2.695312 -4.546875 2.0625 C -4.535156 1.539062 -4.539062 1.007812 -4.5625 0.46875 C -4.59375 -0.0625 -4.601562 -0.609375 -4.59375 -1.171875 C -4.613281 -5.359375 -4.863281 -9.519531 -5.34375 -13.65625 C -5.832031 -17.800781 -6.34375 -21.957031 -6.875 -26.125 C -6.96875 -26.8125 -7.050781 -27.5 -7.125 -28.1875 C -7.207031 -28.875 -7.285156 -29.550781 -7.359375 -30.21875 C -7.546875 -32.269531 -6.675781 -32.988281 -4.75 -32.375 C -3.394531 -31.914062 -2.222656 -31.285156 -1.234375 -30.484375 C 0.785156 -28.867188 2.734375 -27.171875 4.609375 -25.390625 C 6.484375 -23.609375 8.203125 -21.675781 9.765625 -19.59375 C 10.203125 -19.050781 10.5 -18.769531 10.65625 -18.75 C 10.820312 -18.738281 11.1875 -18.960938 11.75 -19.421875 C 12.4375 -20.054688 13.101562 -20.707031 13.75 -21.375 C 14.394531 -22.050781 14.988281 -22.765625 15.53125 -23.515625 C 15.664062 -23.710938 15.804688 -23.90625 15.953125 -24.09375 C 16.109375 -24.289062 16.285156 -24.460938 16.484375 -24.609375 C 17.066406 -24.972656 17.550781 -24.941406 17.9375 -24.515625 C 18.113281 -24.347656 18.171875 -24.160156 18.109375 -23.953125 C 18.046875 -23.753906 17.960938 -23.554688 17.859375 -23.359375 C 17.410156 -22.722656 16.9375 -22.078125 16.4375 -21.421875 C 15.945312 -20.773438 15.421875 -20.171875 14.859375 -19.609375 C 14.566406 -19.304688 14.257812 -19.007812 13.9375 -18.71875 C 13.625 -18.425781 13.3125 -18.144531 13 -17.875 C 12.375 -17.382812 12.039062 -17.046875 12 -16.859375 C 11.96875 -16.671875 12.144531 -16.257812 12.53125 -15.625 C 12.769531 -15.269531 12.984375 -14.894531 13.171875 -14.5 C 13.367188 -14.113281 13.578125 -13.738281 13.796875 -13.375 C 14.210938 -12.644531 14.515625 -11.878906 14.703125 -11.078125 C 14.898438 -10.285156 15.046875 -9.472656 15.140625 -8.640625 C 15.273438 -6.890625 14.789062 -5.300781 13.6875 -3.875 C 12.726562 -2.582031 11.585938 -1.625 10.265625 -1 C 8.953125 -0.375 7.515625 -0.078125 5.953125 -0.109375 C 4.554688 -0.0859375 3.363281 -0.425781 2.375 -1.125 C 1.394531 -1.820312 0.707031 -2.738281 0.3125 -3.875 C -0.0820312 -5.019531 -0.09375 -6.257812 0.28125 -7.59375 C 0.625 -8.78125 1.144531 -9.835938 1.84375 -10.765625 C 2.539062 -11.691406 3.328125 -12.566406 4.203125 -13.390625 C 4.703125 -13.878906 5.035156 -14.253906 5.203125 -14.515625 C 5.378906 -14.773438 5.398438 -15.039062 5.265625 -15.3125 C 5.128906 -15.59375 4.867188 -16.003906 4.484375 -16.546875 C 3.359375 -18.066406 2.164062 -19.535156 0.90625 -20.953125 C -0.351562 -22.367188 -1.601562 -23.78125 -2.84375 -25.1875 Z M 10.078125 -5.140625 C 10.078125 -5.691406 10.023438 -6.238281 9.921875 -6.78125 C 9.816406 -7.320312 9.6875 -7.804688 9.53125 -8.234375 C 9.25 -9.054688 8.925781 -9.789062 8.5625 -10.4375 C 8.195312 -11.082031 7.804688 -11.710938 7.390625 -12.328125 C 7.078125 -12.867188 6.734375 -12.929688 6.359375 -12.515625 C 5.597656 -11.734375 4.957031 -10.890625 4.4375 -9.984375 C 3.914062 -9.078125 3.628906 -8.0625 3.578125 -6.9375 C 3.585938 -5.90625 3.851562 -5.007812 4.375 -4.25 C 4.894531 -3.5 5.628906 -2.96875 6.578125 -2.65625 C 7.546875 -2.351562 8.359375 -2.4375 9.015625 -2.90625 C 9.679688 -3.375 10.035156 -4.117188 10.078125 -5.140625 Z M 10.078125 -5.140625 "/></g></g><g style="fill:#622906;fill-opacity:1;"><g transform="translate(143.635968, 237.971986)"><path style="stroke:none" d="M -1.171875 -6.71875 C -2.046875 -8.863281 -2.816406 -11.03125 -3.484375 -13.21875 C -4.148438 -15.414062 -4.648438 -17.59375 -4.984375 -19.75 C -5.578125 -21.9375 -6.023438 -24.097656 -6.328125 -26.234375 C -6.628906 -28.378906 -6.898438 -30.523438 -7.140625 -32.671875 C -7.171875 -33.359375 -7.253906 -33.742188 -7.390625 -33.828125 C -7.523438 -33.910156 -7.945312 -33.867188 -8.65625 -33.703125 C -9.15625 -33.585938 -9.671875 -33.46875 -10.203125 -33.34375 C -10.742188 -33.21875 -11.269531 -33.097656 -11.78125 -32.984375 C -12.09375 -32.953125 -12.398438 -32.925781 -12.703125 -32.90625 C -13.015625 -32.894531 -13.203125 -33.132812 -13.265625 -33.625 C -13.367188 -34.0625 -13.378906 -34.382812 -13.296875 -34.59375 C -13.210938 -34.8125 -12.941406 -35.007812 -12.484375 -35.1875 C -11.804688 -35.46875 -11.128906 -35.734375 -10.453125 -35.984375 C -9.773438 -36.242188 -9.09375 -36.472656 -8.40625 -36.671875 C -7.6875 -36.910156 -7.335938 -37.414062 -7.359375 -38.1875 C -7.378906 -38.925781 -7.367188 -39.648438 -7.328125 -40.359375 C -7.285156 -41.066406 -7.222656 -41.773438 -7.140625 -42.484375 C -7.054688 -43.273438 -6.644531 -43.742188 -5.90625 -43.890625 C -5.375 -43.960938 -4.863281 -44.066406 -4.375 -44.203125 C -3.894531 -44.335938 -3.414062 -44.460938 -2.9375 -44.578125 C -2.363281 -44.660156 -1.992188 -44.644531 -1.828125 -44.53125 C -1.671875 -44.414062 -1.53125 -44.082031 -1.40625 -43.53125 C -1.15625 -42.613281 -0.953125 -41.671875 -0.796875 -40.703125 C -0.710938 -39.953125 -0.597656 -39.519531 -0.453125 -39.40625 C -0.304688 -39.300781 0.148438 -39.34375 0.921875 -39.53125 C 2.453125 -39.925781 3.984375 -40.363281 5.515625 -40.84375 C 7.054688 -41.320312 8.609375 -41.703125 10.171875 -41.984375 C 10.828125 -42.140625 11.492188 -42.296875 12.171875 -42.453125 C 12.859375 -42.609375 13.554688 -42.726562 14.265625 -42.8125 C 14.859375 -42.914062 15.257812 -42.875 15.46875 -42.6875 C 15.6875 -42.5 15.828125 -42.128906 15.890625 -41.578125 C 15.910156 -41.148438 15.78125 -40.882812 15.5 -40.78125 C 15.25 -40.6875 15.015625 -40.59375 14.796875 -40.5 C 14.585938 -40.414062 14.359375 -40.34375 14.109375 -40.28125 C 11.992188 -39.675781 9.875 -39.066406 7.75 -38.453125 C 5.625 -37.847656 3.5 -37.222656 1.375 -36.578125 C 0.613281 -36.347656 0.175781 -36.15625 0.0625 -36 C -0.0507812 -35.84375 -0.0703125 -35.34375 0 -34.5 C 0.238281 -32.457031 0.523438 -30.421875 0.859375 -28.390625 C 1.191406 -26.367188 1.519531 -24.347656 1.84375 -22.328125 C 2.21875 -20.046875 2.640625 -17.789062 3.109375 -15.5625 C 3.585938 -13.332031 4.109375 -11.097656 4.671875 -8.859375 C 5.015625 -7.585938 5.429688 -6.347656 5.921875 -5.140625 C 6.410156 -3.941406 6.941406 -2.75 7.515625 -1.5625 C 7.742188 -1.125 8.03125 -0.671875 8.375 -0.203125 C 8.90625 0.441406 9.378906 0.742188 9.796875 0.703125 C 10.210938 0.671875 10.625 0.28125 11.03125 -0.46875 C 11.207031 -0.738281 11.347656 -1.023438 11.453125 -1.328125 C 11.566406 -1.628906 11.660156 -1.921875 11.734375 -2.203125 C 12.210938 -3.671875 12.539062 -5.140625 12.71875 -6.609375 C 12.90625 -8.085938 13.097656 -9.566406 13.296875 -11.046875 C 13.441406 -12.203125 13.566406 -13.34375 13.671875 -14.46875 C 13.773438 -15.59375 13.890625 -16.734375 14.015625 -17.890625 C 14.035156 -18.128906 14.054688 -18.367188 14.078125 -18.609375 C 14.109375 -18.859375 14.269531 -19.015625 14.5625 -19.078125 C 15.28125 -19.273438 15.945312 -19.234375 16.5625 -18.953125 C 16.695312 -18.867188 16.78125 -18.757812 16.8125 -18.625 C 16.84375 -18.488281 16.851562 -18.367188 16.84375 -18.265625 C 16.707031 -15.710938 16.582031 -13.175781 16.46875 -10.65625 C 16.351562 -8.132812 15.960938 -5.632812 15.296875 -3.15625 C 15.191406 -2.65625 15.015625 -2.148438 14.765625 -1.640625 C 14.097656 0.109375 13.050781 1.332031 11.625 2.03125 C 10.207031 2.726562 8.585938 3.019531 6.765625 2.90625 C 6.109375 2.863281 5.503906 2.65625 4.953125 2.28125 C 4.398438 1.90625 3.890625 1.460938 3.421875 0.953125 C 2.421875 -0.171875 1.546875 -1.378906 0.796875 -2.671875 C 0.0546875 -3.972656 -0.597656 -5.320312 -1.171875 -6.71875 Z M -1.171875 -6.71875 "/></g></g><g style="fill:#622906;fill-opacity:1;"><g transform="translate(158.527309, 233.994412)"><path style="stroke:none" d="M 28.578125 -18.90625 C 29.128906 -18.726562 29.441406 -18.566406 29.515625 -18.421875 C 29.585938 -18.273438 29.535156 -17.910156 29.359375 -17.328125 C 28.523438 -14.773438 27.660156 -12.25 26.765625 -9.75 C 25.867188 -7.25 24.925781 -4.753906 23.9375 -2.265625 C 23.738281 -1.703125 23.492188 -1.140625 23.203125 -0.578125 C 22.910156 -0.015625 22.585938 0.507812 22.234375 1 C 21.566406 1.894531 20.710938 2.476562 19.671875 2.75 C 18.640625 3.03125 17.613281 3.003906 16.59375 2.671875 C 15.582031 2.347656 14.757812 1.726562 14.125 0.8125 C 13.457031 -0.21875 12.921875 -1.304688 12.515625 -2.453125 C 12.117188 -3.609375 11.765625 -4.773438 11.453125 -5.953125 C 11.140625 -7.066406 10.894531 -8.171875 10.71875 -9.265625 C 10.550781 -10.367188 10.367188 -11.476562 10.171875 -12.59375 C 10.160156 -12.707031 10.144531 -12.847656 10.125 -13.015625 C 10.113281 -13.191406 10.003906 -13.347656 9.796875 -13.484375 C 9.554688 -12.890625 9.304688 -12.3125 9.046875 -11.75 C 8.785156 -11.1875 8.515625 -10.609375 8.234375 -10.015625 C 7.984375 -9.453125 7.703125 -8.910156 7.390625 -8.390625 C 7.085938 -7.867188 6.765625 -7.34375 6.421875 -6.8125 C 5.671875 -5.863281 4.675781 -5.320312 3.4375 -5.1875 C 1.851562 -5.019531 0.691406 -5.617188 -0.046875 -6.984375 C -0.421875 -7.660156 -0.71875 -8.367188 -0.9375 -9.109375 C -1.164062 -9.847656 -1.335938 -10.585938 -1.453125 -11.328125 C -1.703125 -12.929688 -1.789062 -14.515625 -1.71875 -16.078125 C -1.65625 -17.648438 -1.378906 -19.195312 -0.890625 -20.71875 C -0.328125 -22.53125 0.519531 -24.101562 1.65625 -25.4375 C 2.789062 -26.769531 4.3125 -27.722656 6.21875 -28.296875 C 6.882812 -28.484375 7.53125 -28.566406 8.15625 -28.546875 C 8.789062 -28.535156 9.429688 -28.492188 10.078125 -28.421875 C 10.453125 -28.367188 10.875 -28.445312 11.34375 -28.65625 C 12.070312 -29.03125 12.84375 -29.25 13.65625 -29.3125 C 14.46875 -29.375 15.265625 -29.4375 16.046875 -29.5 C 16.234375 -29.519531 16.367188 -29.460938 16.453125 -29.328125 C 16.546875 -29.203125 16.617188 -29.066406 16.671875 -28.921875 C 16.828125 -28.585938 16.929688 -28.242188 16.984375 -27.890625 C 17.035156 -27.535156 17.078125 -27.191406 17.109375 -26.859375 C 17.390625 -23.847656 17.609375 -20.84375 17.765625 -17.84375 C 17.929688 -14.851562 18.070312 -11.851562 18.1875 -8.84375 C 18.238281 -7.695312 18.300781 -6.566406 18.375 -5.453125 C 18.457031 -4.335938 18.578125 -3.226562 18.734375 -2.125 C 18.765625 -1.820312 18.816406 -1.5 18.890625 -1.15625 C 18.960938 -0.820312 19.085938 -0.5 19.265625 -0.1875 C 19.546875 -0.332031 19.757812 -0.53125 19.90625 -0.78125 C 20.050781 -1.039062 20.191406 -1.273438 20.328125 -1.484375 C 21.085938 -2.898438 21.769531 -4.34375 22.375 -5.8125 C 22.976562 -7.289062 23.5625 -8.785156 24.125 -10.296875 C 24.644531 -11.566406 25.128906 -12.835938 25.578125 -14.109375 C 26.035156 -15.390625 26.503906 -16.664062 26.984375 -17.9375 C 27.222656 -18.570312 27.421875 -18.929688 27.578125 -19.015625 C 27.734375 -19.109375 28.066406 -19.070312 28.578125 -18.90625 Z M 10.5 -24.421875 C 10.488281 -25.210938 10.25 -25.753906 9.78125 -26.046875 C 9.3125 -26.335938 8.710938 -26.347656 7.984375 -26.078125 C 7.703125 -25.929688 7.4375 -25.757812 7.1875 -25.5625 C 6.945312 -25.375 6.722656 -25.160156 6.515625 -24.921875 C 6.109375 -24.453125 5.757812 -23.960938 5.46875 -23.453125 C 5.175781 -22.953125 4.910156 -22.445312 4.671875 -21.9375 C 3.722656 -20.050781 3.125 -18.117188 2.875 -16.140625 C 2.625 -14.160156 2.59375 -12.140625 2.78125 -10.078125 C 2.789062 -9.921875 2.796875 -9.757812 2.796875 -9.59375 C 2.796875 -9.425781 2.820312 -9.265625 2.875 -9.109375 C 2.9375 -8.773438 2.953125 -8.398438 2.921875 -7.984375 C 2.898438 -7.566406 3.140625 -7.328125 3.640625 -7.265625 C 4.054688 -7.191406 4.359375 -7.34375 4.546875 -7.71875 C 4.734375 -8.09375 4.890625 -8.441406 5.015625 -8.765625 C 6.066406 -11.003906 7.007812 -13.273438 7.84375 -15.578125 C 8.6875 -17.878906 9.484375 -20.191406 10.234375 -22.515625 C 10.410156 -23.085938 10.5 -23.722656 10.5 -24.421875 Z M 10.5 -24.421875 "/></g></g><g style="fill:#622906;fill-opacity:1;"><g transform="translate(184.652146, 231.075337)"><path style="stroke:none" d="M 17.9375 -14.890625 C 17.925781 -14.816406 17.90625 -14.757812 17.875 -14.71875 C 17.59375 -14.550781 17.410156 -14.34375 17.328125 -14.09375 C 17.242188 -13.851562 17.140625 -13.625 17.015625 -13.40625 C 16.492188 -12.375 15.976562 -11.335938 15.46875 -10.296875 C 14.96875 -9.265625 14.46875 -8.238281 13.96875 -7.21875 C 13.34375 -5.988281 12.585938 -4.898438 11.703125 -3.953125 C 10.773438 -2.898438 9.5625 -2.238281 8.0625 -1.96875 C 6.5625 -1.695312 5.203125 -1.894531 3.984375 -2.5625 C 3.472656 -2.863281 3.066406 -3.226562 2.765625 -3.65625 C 2.460938 -4.082031 2.210938 -4.550781 2.015625 -5.0625 C 1.617188 -6.050781 1.351562 -7.078125 1.21875 -8.140625 C 1.082031 -9.203125 1 -10.269531 0.96875 -11.34375 C 1 -14.132812 1.132812 -16.921875 1.375 -19.703125 C 1.613281 -22.484375 1.972656 -25.265625 2.453125 -28.046875 C 2.503906 -28.253906 2.5625 -28.460938 2.625 -28.671875 C 2.695312 -28.878906 2.738281 -29.078125 2.75 -29.265625 C 2.84375 -29.671875 3.113281 -29.878906 3.5625 -29.890625 C 4.164062 -29.929688 4.789062 -29.960938 5.4375 -29.984375 C 6.082031 -30.015625 6.726562 -30.03125 7.375 -30.03125 C 7.851562 -30.007812 8.15625 -29.9375 8.28125 -29.8125 C 8.40625 -29.695312 8.4375 -29.378906 8.375 -28.859375 C 8.238281 -27.515625 8.109375 -26.160156 7.984375 -24.796875 C 7.859375 -23.441406 7.703125 -22.09375 7.515625 -20.75 C 7.222656 -18.71875 6.96875 -16.6875 6.75 -14.65625 C 6.539062 -12.632812 6.507812 -10.582031 6.65625 -8.5 C 6.707031 -7.925781 6.765625 -7.363281 6.828125 -6.8125 C 6.898438 -6.257812 7.050781 -5.734375 7.28125 -5.234375 C 7.582031 -4.421875 8.066406 -4.300781 8.734375 -4.875 C 8.929688 -5.09375 9.113281 -5.316406 9.28125 -5.546875 C 9.445312 -5.785156 9.613281 -6.035156 9.78125 -6.296875 C 10.882812 -7.972656 11.867188 -9.707031 12.734375 -11.5 C 13.609375 -13.289062 14.46875 -15.109375 15.3125 -16.953125 C 15.988281 -18.421875 16.675781 -19.882812 17.375 -21.34375 C 18.082031 -22.800781 18.769531 -24.289062 19.4375 -25.8125 C 19.601562 -26.21875 19.820312 -26.515625 20.09375 -26.703125 C 20.375 -26.898438 20.757812 -26.96875 21.25 -26.90625 C 21.625 -26.84375 22.003906 -26.832031 22.390625 -26.875 C 22.773438 -26.914062 23.15625 -26.945312 23.53125 -26.96875 C 24.207031 -26.957031 24.566406 -26.613281 24.609375 -25.9375 C 24.671875 -24.957031 24.65625 -23.992188 24.5625 -23.046875 C 24.238281 -19.578125 23.835938 -16.128906 23.359375 -12.703125 C 22.878906 -9.273438 22.53125 -5.835938 22.3125 -2.390625 C 22.269531 -1.554688 22.238281 -0.703125 22.21875 0.171875 C 22.195312 1.046875 22.164062 1.894531 22.125 2.71875 C 22.101562 3.101562 22.109375 3.484375 22.140625 3.859375 C 22.179688 4.234375 22.265625 4.613281 22.390625 5 C 22.753906 4.71875 23 4.398438 23.125 4.046875 C 23.257812 3.691406 23.394531 3.347656 23.53125 3.015625 C 24.351562 0.898438 25.164062 -1.1875 25.96875 -3.25 C 26.769531 -5.320312 27.585938 -7.414062 28.421875 -9.53125 C 28.546875 -9.820312 28.675781 -10.132812 28.8125 -10.46875 C 28.945312 -10.8125 29.078125 -11.132812 29.203125 -11.4375 C 29.421875 -11.988281 29.84375 -12.210938 30.46875 -12.109375 C 31.4375 -11.972656 31.972656 -11.816406 32.078125 -11.640625 C 32.179688 -11.472656 32.082031 -10.921875 31.78125 -9.984375 C 30.9375 -7.648438 30.109375 -5.3125 29.296875 -2.96875 C 28.484375 -0.632812 27.597656 1.679688 26.640625 3.984375 C 26.484375 4.347656 26.304688 4.722656 26.109375 5.109375 C 25.921875 5.492188 25.722656 5.867188 25.515625 6.234375 C 25.046875 7.109375 24.453125 7.6875 23.734375 7.96875 C 23.023438 8.25 22.222656 8.351562 21.328125 8.28125 C 19.554688 8.113281 18.394531 7.171875 17.84375 5.453125 C 17.625 4.765625 17.453125 4.066406 17.328125 3.359375 C 17.210938 2.648438 17.125 1.9375 17.0625 1.21875 C 16.882812 -0.726562 16.835938 -2.648438 16.921875 -4.546875 C 17.003906 -6.453125 17.164062 -8.359375 17.40625 -10.265625 C 17.488281 -11.023438 17.578125 -11.769531 17.671875 -12.5 C 17.765625 -13.226562 17.8125 -13.96875 17.8125 -14.71875 C 17.882812 -14.757812 17.921875 -14.800781 17.921875 -14.84375 C 17.921875 -14.84375 17.925781 -14.859375 17.9375 -14.890625 Z M 17.9375 -14.890625 "/></g></g><g style="fill:#622906;fill-opacity:1;"><g transform="translate(210.61102, 232.257815)"><path style="stroke:none" d="M 16.125 -24.609375 C 16.15625 -24.753906 16.207031 -24.90625 16.28125 -25.0625 C 16.351562 -25.226562 16.375 -25.429688 16.34375 -25.671875 C 15.476562 -25.960938 14.601562 -26.242188 13.71875 -26.515625 C 12.832031 -26.796875 11.96875 -27.132812 11.125 -27.53125 C 10.863281 -26.6875 10.617188 -25.875 10.390625 -25.09375 C 10.160156 -24.320312 9.945312 -23.550781 9.75 -22.78125 C 8.75 -19.175781 7.601562 -15.609375 6.3125 -12.078125 C 5.019531 -8.554688 3.617188 -5.0625 2.109375 -1.59375 C 2.097656 -1.519531 2.078125 -1.445312 2.046875 -1.375 C 2.015625 -1.300781 1.96875 -1.234375 1.90625 -1.171875 C 1.238281 0.273438 0.242188 0.535156 -1.078125 -0.390625 C -1.273438 -0.515625 -1.375 -0.660156 -1.375 -0.828125 C -1.382812 -1.003906 -1.367188 -1.1875 -1.328125 -1.375 C -1.160156 -2.0625 -0.957031 -2.75 -0.71875 -3.4375 C -0.476562 -4.125 -0.238281 -4.804688 0 -5.484375 C 1.019531 -8.046875 1.941406 -10.644531 2.765625 -13.28125 C 3.597656 -15.914062 4.363281 -18.59375 5.0625 -21.3125 C 5.394531 -22.59375 5.742188 -23.859375 6.109375 -25.109375 C 6.484375 -26.367188 6.851562 -27.613281 7.21875 -28.84375 C 7.269531 -29.070312 7.34375 -29.28125 7.4375 -29.46875 C 7.539062 -29.664062 7.625 -29.851562 7.6875 -30.03125 C 7.9375 -30.8125 8.46875 -31.046875 9.28125 -30.734375 C 9.9375 -30.523438 10.566406 -30.3125 11.171875 -30.09375 C 11.773438 -29.882812 12.34375 -29.546875 12.875 -29.078125 C 13.351562 -28.628906 13.890625 -28.285156 14.484375 -28.046875 C 15.078125 -27.816406 15.6875 -27.625 16.3125 -27.46875 C 17.03125 -27.28125 17.757812 -27.109375 18.5 -26.953125 C 19.238281 -26.804688 19.976562 -26.660156 20.71875 -26.515625 C 21.757812 -26.304688 22.445312 -25.925781 22.78125 -25.375 C 23.113281 -24.820312 23.09375 -24.039062 22.71875 -23.03125 C 22.257812 -21.675781 21.765625 -20.3125 21.234375 -18.9375 C 20.710938 -17.5625 20.210938 -16.179688 19.734375 -14.796875 C 18.878906 -12.441406 18.128906 -10.066406 17.484375 -7.671875 C 16.847656 -5.285156 16.335938 -2.859375 15.953125 -0.390625 C 15.785156 0.609375 15.671875 1.628906 15.609375 2.671875 C 15.554688 3.722656 15.582031 4.757812 15.6875 5.78125 C 15.75 6.40625 15.894531 6.769531 16.125 6.875 C 16.363281 6.976562 16.742188 6.875 17.265625 6.5625 C 18.035156 6.132812 18.742188 5.617188 19.390625 5.015625 C 20.035156 4.421875 20.648438 3.796875 21.234375 3.140625 C 22.441406 1.742188 23.535156 0.28125 24.515625 -1.25 C 25.503906 -2.789062 26.472656 -4.375 27.421875 -6 C 28.023438 -7.050781 28.65625 -8.117188 29.3125 -9.203125 C 29.96875 -10.296875 30.617188 -11.375 31.265625 -12.4375 C 31.378906 -12.59375 31.503906 -12.765625 31.640625 -12.953125 C 31.773438 -13.140625 31.953125 -13.226562 32.171875 -13.21875 C 32.503906 -13.144531 32.84375 -13.050781 33.1875 -12.9375 C 33.53125 -12.832031 33.835938 -12.664062 34.109375 -12.4375 C 34.191406 -12.332031 34.21875 -12.210938 34.1875 -12.078125 C 34.164062 -11.941406 34.125 -11.8125 34.0625 -11.6875 C 33.9375 -11.40625 33.800781 -11.125 33.65625 -10.84375 C 33.519531 -10.5625 33.390625 -10.28125 33.265625 -10 C 31.960938 -7.601562 30.628906 -5.253906 29.265625 -2.953125 C 27.898438 -0.660156 26.34375 1.546875 24.59375 3.671875 C 23.875 4.554688 23.097656 5.382812 22.265625 6.15625 C 21.441406 6.925781 20.539062 7.644531 19.5625 8.3125 C 18.8125 8.789062 17.859375 9.019531 16.703125 9 C 15.554688 8.988281 14.472656 8.765625 13.453125 8.328125 C 12.441406 7.890625 11.742188 7.328125 11.359375 6.640625 C 10.992188 5.984375 10.691406 5.285156 10.453125 4.546875 C 9.941406 2.867188 9.6875 1.164062 9.6875 -0.5625 C 9.695312 -2.300781 9.859375 -4.023438 10.171875 -5.734375 C 11.429688 -12.179688 13.414062 -18.472656 16.125 -24.609375 Z M 16.125 -24.609375 "/></g></g><g style="fill:#622906;fill-opacity:1;"><g transform="translate(234.464414, 236.798334)"><path style="stroke:none" d="M 33.96875 -4.484375 C 34.382812 -4.078125 34.59375 -3.789062 34.59375 -3.625 C 34.59375 -3.46875 34.394531 -3.164062 34 -2.71875 C 32.125 -0.789062 30.234375 1.097656 28.328125 2.953125 C 26.429688 4.804688 24.492188 6.640625 22.515625 8.453125 C 22.085938 8.859375 21.617188 9.25 21.109375 9.625 C 20.609375 10.007812 20.09375 10.34375 19.5625 10.625 C 18.5625 11.144531 17.535156 11.300781 16.484375 11.09375 C 15.429688 10.882812 14.519531 10.410156 13.75 9.671875 C 12.976562 8.941406 12.507812 8.019531 12.34375 6.90625 C 12.1875 5.695312 12.175781 4.484375 12.3125 3.265625 C 12.457031 2.046875 12.648438 0.835938 12.890625 -0.359375 C 13.117188 -1.484375 13.394531 -2.578125 13.71875 -3.640625 C 14.039062 -4.703125 14.359375 -5.773438 14.671875 -6.859375 C 14.710938 -6.972656 14.757812 -7.109375 14.8125 -7.265625 C 14.875 -7.429688 14.84375 -7.617188 14.71875 -7.828125 C 14.238281 -7.398438 13.753906 -6.988281 13.265625 -6.59375 C 12.785156 -6.195312 12.289062 -5.800781 11.78125 -5.40625 C 11.3125 -5.007812 10.820312 -4.640625 10.3125 -4.296875 C 9.8125 -3.953125 9.289062 -3.625 8.75 -3.3125 C 7.664062 -2.78125 6.539062 -2.726562 5.375 -3.15625 C 3.882812 -3.695312 3.097656 -4.742188 3.015625 -6.296875 C 2.972656 -7.078125 3.015625 -7.847656 3.140625 -8.609375 C 3.265625 -9.367188 3.4375 -10.109375 3.65625 -10.828125 C 4.144531 -12.378906 4.757812 -13.84375 5.5 -15.21875 C 6.238281 -16.59375 7.160156 -17.863281 8.265625 -19.03125 C 9.566406 -20.40625 11.019531 -21.441406 12.625 -22.140625 C 14.226562 -22.847656 16.015625 -23.035156 17.984375 -22.703125 C 18.660156 -22.585938 19.273438 -22.382812 19.828125 -22.09375 C 20.390625 -21.8125 20.945312 -21.488281 21.5 -21.125 C 21.820312 -20.925781 22.238281 -20.8125 22.75 -20.78125 C 23.5625 -20.800781 24.347656 -20.664062 25.109375 -20.375 C 25.867188 -20.082031 26.613281 -19.785156 27.34375 -19.484375 C 27.519531 -19.421875 27.617188 -19.3125 27.640625 -19.15625 C 27.660156 -19 27.664062 -18.847656 27.65625 -18.703125 C 27.644531 -18.335938 27.582031 -17.984375 27.46875 -17.640625 C 27.363281 -17.296875 27.253906 -16.96875 27.140625 -16.65625 C 26.078125 -13.832031 24.960938 -11.035156 23.796875 -8.265625 C 22.628906 -5.503906 21.4375 -2.738281 20.21875 0.03125 C 19.757812 1.0625 19.320312 2.09375 18.90625 3.125 C 18.488281 4.164062 18.109375 5.222656 17.765625 6.296875 C 17.660156 6.578125 17.566406 6.882812 17.484375 7.21875 C 17.410156 7.550781 17.382812 7.90625 17.40625 8.28125 C 17.71875 8.28125 17.992188 8.191406 18.234375 8.015625 C 18.484375 7.835938 18.710938 7.691406 18.921875 7.578125 C 20.222656 6.628906 21.46875 5.625 22.65625 4.5625 C 23.851562 3.5 25.035156 2.414062 26.203125 1.3125 C 27.222656 0.394531 28.210938 -0.535156 29.171875 -1.484375 C 30.140625 -2.441406 31.117188 -3.382812 32.109375 -4.3125 C 32.597656 -4.769531 32.929688 -5.003906 33.109375 -5.015625 C 33.296875 -5.035156 33.582031 -4.859375 33.96875 -4.484375 Z M 20.125 -17.359375 C 20.457031 -18.066406 20.476562 -18.65625 20.1875 -19.125 C 19.894531 -19.59375 19.367188 -19.875 18.609375 -19.96875 C 18.273438 -19.957031 17.957031 -19.914062 17.65625 -19.84375 C 17.351562 -19.769531 17.054688 -19.675781 16.765625 -19.5625 C 16.203125 -19.3125 15.675781 -19.019531 15.1875 -18.6875 C 14.707031 -18.363281 14.242188 -18.023438 13.796875 -17.671875 C 12.128906 -16.398438 10.75 -14.925781 9.65625 -13.25 C 8.5625 -11.582031 7.644531 -9.78125 6.90625 -7.84375 C 6.84375 -7.695312 6.773438 -7.546875 6.703125 -7.390625 C 6.628906 -7.242188 6.582031 -7.09375 6.5625 -6.9375 C 6.476562 -6.613281 6.332031 -6.265625 6.125 -5.890625 C 5.914062 -5.523438 6.019531 -5.203125 6.4375 -4.921875 C 6.789062 -4.679688 7.132812 -4.691406 7.46875 -4.953125 C 7.800781 -5.210938 8.09375 -5.457031 8.34375 -5.6875 C 10.28125 -7.238281 12.128906 -8.863281 13.890625 -10.5625 C 15.648438 -12.257812 17.375 -13.988281 19.0625 -15.75 C 19.457031 -16.195312 19.8125 -16.734375 20.125 -17.359375 Z M 20.125 -17.359375 "/></g></g><g style="fill:#622906;fill-opacity:1;"><g transform="translate(259.195346, 245.53455)"><path style="stroke:none" d="M 35.8125 1.03125 C 36.226562 1.394531 36.457031 1.6875 36.5 1.90625 C 36.550781 2.125 36.378906 2.425781 35.984375 2.8125 C 34.335938 4.53125 32.617188 6.144531 30.828125 7.65625 C 29.046875 9.164062 27.117188 10.460938 25.046875 11.546875 C 24.191406 11.972656 23.390625 12.285156 22.640625 12.484375 C 21.609375 12.722656 20.5 12.625 19.3125 12.1875 C 18.132812 11.75 17.242188 11.09375 16.640625 10.21875 C 16.296875 9.78125 16.09375 9.304688 16.03125 8.796875 C 15.96875 8.285156 15.96875 7.738281 16.03125 7.15625 C 16.144531 6.238281 16.359375 5.335938 16.671875 4.453125 C 16.992188 3.578125 17.367188 2.722656 17.796875 1.890625 C 18.628906 0.140625 19.566406 -1.53125 20.609375 -3.125 C 21.648438 -4.726562 22.671875 -6.351562 23.671875 -8 C 24.785156 -9.75 25.660156 -11.628906 26.296875 -13.640625 C 26.390625 -13.953125 26.476562 -14.285156 26.5625 -14.640625 C 26.65625 -14.992188 26.539062 -15.304688 26.21875 -15.578125 C 25.925781 -15.828125 25.625 -15.898438 25.3125 -15.796875 C 25 -15.691406 24.675781 -15.578125 24.34375 -15.453125 C 21.164062 -14.160156 18.296875 -12.375 15.734375 -10.09375 C 13.671875 -8.257812 11.695312 -6.34375 9.8125 -4.34375 C 7.925781 -2.351562 6.117188 -0.304688 4.390625 1.796875 C 3.878906 2.367188 3.53125 2.671875 3.34375 2.703125 C 3.164062 2.734375 2.75 2.585938 2.09375 2.265625 C 1.863281 2.140625 1.628906 2.019531 1.390625 1.90625 C 1.148438 1.789062 0.914062 1.671875 0.6875 1.546875 C -0.101562 1.191406 -0.546875 0.890625 -0.640625 0.640625 C -0.734375 0.390625 -0.640625 -0.101562 -0.359375 -0.84375 C -0.0234375 -1.78125 0.3125 -2.710938 0.65625 -3.640625 C 1 -4.578125 1.398438 -5.484375 1.859375 -6.359375 C 3.460938 -9.554688 5.210938 -12.664062 7.109375 -15.6875 C 9.015625 -18.707031 11.097656 -21.625 13.359375 -24.4375 C 13.429688 -24.5625 13.523438 -24.675781 13.640625 -24.78125 C 13.765625 -24.894531 13.859375 -25.015625 13.921875 -25.140625 C 14.359375 -25.765625 14.914062 -25.863281 15.59375 -25.4375 C 16.382812 -25 17.234375 -24.554688 18.140625 -24.109375 C 18.753906 -23.796875 18.914062 -23.3125 18.625 -22.65625 C 18.414062 -22.21875 18.21875 -21.828125 18.03125 -21.484375 C 17.351562 -20.265625 16.671875 -19.039062 15.984375 -17.8125 C 15.296875 -16.582031 14.601562 -15.335938 13.90625 -14.078125 C 13.800781 -13.890625 13.679688 -13.675781 13.546875 -13.4375 C 13.421875 -13.207031 13.273438 -12.941406 13.109375 -12.640625 C 13.484375 -12.691406 13.773438 -12.8125 13.984375 -13 C 14.203125 -13.1875 14.414062 -13.34375 14.625 -13.46875 C 15.695312 -14.226562 16.773438 -14.941406 17.859375 -15.609375 C 18.941406 -16.273438 20.070312 -16.863281 21.25 -17.375 C 22.195312 -17.75 23.144531 -17.992188 24.09375 -18.109375 C 25.050781 -18.234375 26.023438 -18.144531 27.015625 -17.84375 C 29.253906 -17.195312 30.390625 -15.707031 30.421875 -13.375 C 30.421875 -12.582031 30.3125 -11.816406 30.09375 -11.078125 C 29.875 -10.335938 29.613281 -9.625 29.3125 -8.9375 C 28.851562 -7.9375 28.347656 -6.960938 27.796875 -6.015625 C 27.253906 -5.066406 26.660156 -4.144531 26.015625 -3.25 C 24.867188 -1.5625 23.765625 0.160156 22.703125 1.921875 C 21.640625 3.679688 20.804688 5.5625 20.203125 7.5625 C 20.148438 7.65625 20.109375 7.75 20.078125 7.84375 C 20.046875 7.9375 20.019531 8.035156 20 8.140625 C 19.925781 8.503906 19.835938 8.867188 19.734375 9.234375 C 19.640625 9.609375 19.773438 9.945312 20.140625 10.25 C 20.460938 10.507812 20.816406 10.585938 21.203125 10.484375 C 21.585938 10.378906 21.953125 10.242188 22.296875 10.078125 C 22.847656 9.867188 23.390625 9.597656 23.921875 9.265625 C 24.453125 8.929688 24.976562 8.609375 25.5 8.296875 C 27.0625 7.265625 28.554688 6.15625 29.984375 4.96875 C 31.421875 3.789062 32.832031 2.570312 34.21875 1.3125 C 34.445312 1.09375 34.675781 0.90625 34.90625 0.75 C 35.132812 0.601562 35.4375 0.695312 35.8125 1.03125 Z M 35.8125 1.03125 "/></g></g><g style="fill:#622906;fill-opacity:1;"><g transform="translate(283.281444, 259.222707)"><path style="stroke:none" d="M 4.34375 -5.234375 C 5.40625 -7.304688 6.550781 -9.304688 7.78125 -11.234375 C 9.019531 -13.160156 10.351562 -14.957031 11.78125 -16.625 C 13.050781 -18.5 14.398438 -20.242188 15.828125 -21.859375 C 17.265625 -23.472656 18.722656 -25.066406 20.203125 -26.640625 C 20.703125 -27.109375 20.9375 -27.421875 20.90625 -27.578125 C 20.882812 -27.742188 20.585938 -28.039062 20.015625 -28.46875 C 19.597656 -28.78125 19.164062 -29.097656 18.71875 -29.421875 C 18.28125 -29.742188 17.847656 -30.066406 17.421875 -30.390625 C 17.203125 -30.597656 16.984375 -30.8125 16.765625 -31.03125 C 16.554688 -31.25 16.613281 -31.546875 16.9375 -31.921875 C 17.207031 -32.296875 17.453125 -32.519531 17.671875 -32.59375 C 17.898438 -32.664062 18.226562 -32.582031 18.65625 -32.34375 C 19.300781 -32.007812 19.9375 -31.671875 20.5625 -31.328125 C 21.195312 -30.984375 21.816406 -30.613281 22.421875 -30.21875 C 23.078125 -29.820312 23.691406 -29.882812 24.265625 -30.40625 C 24.804688 -30.882812 25.359375 -31.335938 25.921875 -31.765625 C 26.492188 -32.191406 27.078125 -32.613281 27.671875 -33.03125 C 28.328125 -33.476562 28.953125 -33.460938 29.546875 -32.984375 C 29.941406 -32.640625 30.347656 -32.320312 30.765625 -32.03125 C 31.191406 -31.75 31.601562 -31.460938 32 -31.171875 C 32.425781 -30.804688 32.644531 -30.523438 32.65625 -30.328125 C 32.675781 -30.128906 32.519531 -29.800781 32.1875 -29.34375 C 31.65625 -28.550781 31.070312 -27.78125 30.4375 -27.03125 C 29.914062 -26.476562 29.660156 -26.113281 29.671875 -25.9375 C 29.691406 -25.757812 30.019531 -25.4375 30.65625 -24.96875 C 31.945312 -24.070312 33.269531 -23.191406 34.625 -22.328125 C 35.988281 -21.460938 37.285156 -20.535156 38.515625 -19.546875 C 39.066406 -19.140625 39.625 -18.726562 40.1875 -18.3125 C 40.75 -17.90625 41.289062 -17.453125 41.8125 -16.953125 C 42.289062 -16.566406 42.53125 -16.226562 42.53125 -15.9375 C 42.53125 -15.65625 42.332031 -15.3125 41.9375 -14.90625 C 41.625 -14.625 41.332031 -14.554688 41.0625 -14.703125 C 40.84375 -14.828125 40.625 -14.941406 40.40625 -15.046875 C 40.195312 -15.160156 39.988281 -15.296875 39.78125 -15.453125 C 37.957031 -16.648438 36.125 -17.859375 34.28125 -19.078125 C 32.4375 -20.296875 30.582031 -21.503906 28.71875 -22.703125 C 28.050781 -23.140625 27.613281 -23.347656 27.40625 -23.328125 C 27.207031 -23.316406 26.816406 -23.007812 26.234375 -22.40625 C 24.847656 -20.894531 23.492188 -19.351562 22.171875 -17.78125 C 20.847656 -16.207031 19.507812 -14.644531 18.15625 -13.09375 C 16.675781 -11.332031 15.242188 -9.546875 13.859375 -7.734375 C 12.472656 -5.921875 11.113281 -4.078125 9.78125 -2.203125 C 9.03125 -1.109375 8.351562 0.0078125 7.75 1.15625 C 7.15625 2.3125 6.597656 3.492188 6.078125 4.703125 C 5.890625 5.171875 5.722656 5.6875 5.578125 6.25 C 5.441406 7.070312 5.523438 7.628906 5.828125 7.921875 C 6.128906 8.222656 6.695312 8.28125 7.53125 8.09375 C 7.84375 8.050781 8.148438 7.972656 8.453125 7.859375 C 8.753906 7.742188 9.035156 7.628906 9.296875 7.515625 C 10.722656 6.910156 12.054688 6.195312 13.296875 5.375 C 14.535156 4.5625 15.78125 3.75 17.03125 2.9375 C 18.007812 2.289062 18.960938 1.644531 19.890625 1 C 20.816406 0.351562 21.753906 -0.296875 22.703125 -0.953125 C 22.898438 -1.097656 23.097656 -1.238281 23.296875 -1.375 C 23.492188 -1.507812 23.71875 -1.488281 23.96875 -1.3125 C 24.582031 -0.882812 24.984375 -0.347656 25.171875 0.296875 C 25.203125 0.441406 25.175781 0.566406 25.09375 0.671875 C 25.007812 0.785156 24.914062 0.878906 24.8125 0.953125 C 22.789062 2.503906 20.78125 4.050781 18.78125 5.59375 C 16.789062 7.144531 14.640625 8.472656 12.328125 9.578125 C 11.878906 9.828125 11.382812 10.023438 10.84375 10.171875 C 9.070312 10.796875 7.457031 10.796875 6 10.171875 C 4.539062 9.546875 3.269531 8.503906 2.1875 7.046875 C 1.789062 6.503906 1.554688 5.898438 1.484375 5.234375 C 1.410156 4.578125 1.410156 3.90625 1.484375 3.21875 C 1.703125 1.726562 2.0625 0.28125 2.5625 -1.125 C 3.0625 -2.539062 3.65625 -3.910156 4.34375 -5.234375 Z M 4.34375 -5.234375 "/></g></g></g></svg>